<svg id="visual" viewBox="0 0 900 600" width="900" height="600" xmlns="http://www.w3.org/2000/svg" xmlns:xlink="http://www.w3.org/1999/xlink" version="1.1"><g><g transform="translate(419 2)"><path d="M0 -51.4L40.2 -32L50.1 11.4L22.3 46.3L-22.3 46.3L-50.1 11.4L-40.2 -32Z" fill="none" stroke="#297EA6" stroke-width="2"></path></g><g transform="translate(638 336)"><path d="M0 -44L34.4 -27.4L42.9 9.8L19.1 39.6L-19.1 39.6L-42.9 9.8L-34.4 -27.4Z" fill="none" stroke="#297EA6" stroke-width="2"></path></g><g transform="translate(865 256)"><path d="M0 -46L36 -28.7L44.8 10.2L20 41.4L-20 41.4L-44.8 10.2L-36 -28.7Z" stroke="#297EA6" fill="none" stroke-width="2"></path></g><g transform="translate(571 536)"><path d="M0 -8L6.3 -5L7.8 1.8L3.5 7.2L-3.5 7.2L-7.8 1.8L-6.3 -5Z" stroke="#297EA6" fill="none" stroke-width="2"></path></g><g transform="translate(448 402)"><path d="M0 -30L23.5 -18.7L29.2 6.7L13 27L-13 27L-29.2 6.7L-23.5 -18.7Z" stroke="#297EA6" fill="none" stroke-width="2"></path></g><g transform="translate(252 372)"><path d="M0 -40L31.3 -24.9L39 8.9L17.4 36L-17.4 36L-39 8.9L-31.3 -24.9Z" stroke="#297EA6" fill="none" stroke-width="2"></path></g><g transform="translate(254 97)"><path d="M0 -7L5.5 -4.4L6.8 1.6L3 6.3L-3 6.3L-6.8 1.6L-5.5 -4.4Z" stroke="#297EA6" fill="none" stroke-width="2"></path></g><g transform="translate(676 166)"><path d="M0 -21L16.4 -13.1L20.5 4.7L9.1 18.9L-9.1 18.9L-20.5 4.7L-16.4 -13.1Z" stroke="#297EA6" fill="none" stroke-width="2"></path></g><g transform="translate(467 122)"><path d="M0 -13L10.2 -8.1L12.7 2.9L5.6 11.7L-5.6 11.7L-12.7 2.9L-10.2 -8.1Z" stroke="#297EA6" fill="none" stroke-width="2"></path></g><g transform="translate(222 235)"><path d="M0 -21L16.4 -13.1L20.5 4.7L9.1 18.9L-9.1 18.9L-20.5 4.7L-16.4 -13.1Z" stroke="#297EA6" fill="none" stroke-width="2"></path></g><g transform="translate(864 117)"><path d="M0 -32L25 -20L31.2 7.1L13.9 28.8L-13.9 28.8L-31.2 7.1L-25 -20Z" stroke="#297EA6" fill="none" stroke-width="2"></path></g><g transform="translate(218 591)"><path d="M0 -18L14.1 -11.2L17.5 4L7.8 16.2L-7.8 16.2L-17.5 4L-14.1 -11.2Z" stroke="#297EA6" fill="none" stroke-width="2"></path></g><g transform="translate(9 382)"><path d="M0 -32L25 -20L31.2 7.1L13.9 28.8L-13.9 28.8L-31.2 7.1L-25 -20Z" stroke="#297EA6" fill="none" stroke-width="2"></path></g><g transform="translate(716 438)"><path d="M0 -21L16.4 -13.1L20.5 4.7L9.1 18.9L-9.1 18.9L-20.5 4.7L-16.4 -13.1Z" stroke="#297EA6" fill="none" stroke-width="2"></path></g><g transform="translate(812 569)"><path d="M0 -11L8.6 -6.9L10.7 2.4L4.8 9.9L-4.8 9.9L-10.7 2.4L-8.6 -6.9Z" stroke="#297EA6" fill="none" stroke-width="2"></path></g><g transform="translate(651 31)"><path d="M0 -9L7 -5.6L8.8 2L3.9 8.1L-3.9 8.1L-8.8 2L-7 -5.6Z" stroke="#297EA6" fill="none" stroke-width="2"></path></g><g transform="translate(740 255)"><path d="M0 -28L21.9 -17.5L27.3 6.2L12.1 25.2L-12.1 25.2L-27.3 6.2L-21.9 -17.5Z" stroke="#297EA6" fill="none" stroke-width="2"></path></g><g transform="translate(789 4)"><path d="M0 -28L21.9 -17.5L27.3 6.2L12.1 25.2L-12.1 25.2L-27.3 6.2L-21.9 -17.5Z" stroke="#297EA6" fill="none" stroke-width="2"></path></g><g transform="translate(135 171)"><path d="M0 -31L24.2 -19.3L30.2 6.9L13.5 27.9L-13.5 27.9L-30.2 6.9L-24.2 -19.3Z" stroke="#297EA6" fill="none" stroke-width="2"></path></g><g transform="translate(359 483)"><path d="M0 -20L15.6 -12.5L19.5 4.5L8.7 18L-8.7 18L-19.5 4.5L-15.6 -12.5Z" stroke="#297EA6" fill="none" stroke-width="2"></path></g><g transform="translate(14 551)"><path d="M0 -46L36 -28.7L44.8 10.2L20 41.4L-20 41.4L-44.8 10.2L-36 -28.7Z" stroke="#297EA6" fill="none" stroke-width="2"></path></g><g transform="translate(422 284)"><path d="M0 -37L28.9 -23.1L36.1 8.2L16.1 33.3L-16.1 33.3L-36.1 8.2L-28.9 -23.1Z" stroke="#297EA6" fill="none" stroke-width="2"></path></g><g transform="translate(545 46)"><path d="M0 -47L36.7 -29.3L45.8 10.5L20.4 42.3L-20.4 42.3L-45.8 10.5L-36.7 -29.3Z" stroke="#297EA6" fill="none" stroke-width="2"></path></g><g transform="translate(106 423)"><path d="M0 -44L34.4 -27.4L42.9 9.8L19.1 39.6L-19.1 39.6L-42.9 9.8L-34.4 -27.4Z" stroke="#297EA6" fill="none" stroke-width="2"></path></g><g transform="translate(354 180)"><path d="M0 -41L32.1 -25.6L40 9.1L17.8 36.9L-17.8 36.9L-40 9.1L-32.1 -25.6Z" stroke="#297EA6" fill="none" stroke-width="2"></path></g><g transform="translate(34 35)"><path d="M0 -30L23.5 -18.7L29.2 6.7L13 27L-13 27L-29.2 6.7L-23.5 -18.7Z" stroke="#297EA6" fill="none" stroke-width="2"></path></g></g></svg>